HIERARCHY
ROOT Hips
{
	OFFSET 0.000000 83.214638 0.000000
	CHANNELS 6 Xposition Yposition Zposition Xrotation Yrotation Zrotation
	JOINT Pelvis
	{
		OFFSET 0.000000 0.000000 0.000000
		CHANNELS 3 Xrotation Yrotation Zrotation
		JOINT LeftUpLeg
		{
			OFFSET 8.479700 -4.795502 -0.379100
			CHANNELS 3 Xrotation Yrotation Zrotation
			JOINT LeftLeg
			{
				OFFSET 0.024144 -32.555107 0.112900
				CHANNELS 3 Xrotation Yrotation Zrotation
				JOINT LeftFoot
				{
					OFFSET -0.024144 -32.638630 -3.012600
					CHANNELS 3 Xrotation Yrotation Zrotation
					JOINT LeftToeBase
					{
						OFFSET 0.970200 -13.225400 11.864200
						CHANNELS 3 Xrotation Yrotation Zrotation
						End Site
						{
							OFFSET 0.000000 12.319262 0.000000
						}
					}
					JOINT LFootTongue
					{
						OFFSET 1.142400 -1.059800 6.665200
						CHANNELS 3 Xrotation Yrotation Zrotation
						End Site
						{
							OFFSET 0.000000 12.319262 0.000000
						}
					}
				}
				JOINT LeftPantLeg
				{
					OFFSET 0.918482 -16.533964 -2.284700
					CHANNELS 3 Xrotation Yrotation Zrotation
					End Site
					{
						OFFSET 0.350399 24.744368 0.000000
					}
				}
			}
		}
		JOINT RightUpLeg
		{
			OFFSET -8.479700 -4.795502 -0.379100
			CHANNELS 3 Xrotation Yrotation Zrotation
			JOINT RightLeg
			{
				OFFSET -0.023144 -32.555092 0.112900
				CHANNELS 3 Xrotation Yrotation Zrotation
				JOINT RightFoot
				{
					OFFSET 0.023144 -32.638641 -3.012700
					CHANNELS 3 Xrotation Yrotation Zrotation
					JOINT RightToeBase
					{
						OFFSET -0.970200 -13.225400 11.864200
						CHANNELS 3 Xrotation Yrotation Zrotation
						End Site
						{
							OFFSET 0.000000 12.319244 0.000000
						}
					}
					JOINT RFootTongue
					{
						OFFSET -1.142200 -1.059800 6.665200
						CHANNELS 3 Xrotation Yrotation Zrotation
						End Site
						{
							OFFSET 0.000000 12.319243 0.000000
						}
					}
				}
				JOINT RightPantLeg
				{
					OFFSET -0.919482 -16.533978 -2.284800
					CHANNELS 3 Xrotation Yrotation Zrotation
					End Site
					{
						OFFSET -0.350400 24.744419 0.000000
					}
				}
			}
		}
	}
	JOINT Spine
	{
		OFFSET 0.000000 7.722000 1.166200
		CHANNELS 3 Xrotation Yrotation Zrotation
		JOINT Spine1
		{
			OFFSET 0.000000 12.024101 0.248800
			CHANNELS 3 Xrotation Yrotation Zrotation
			JOINT Spine2
			{
				OFFSET 0.000000 11.502998 -0.491200
				CHANNELS 3 Xrotation Yrotation Zrotation
				JOINT Neck
				{
					OFFSET 0.000000 18.430702 -3.123100
					CHANNELS 3 Xrotation Yrotation Zrotation
					JOINT Head
					{
						OFFSET 0.000000 9.051102 1.034000
						CHANNELS 3 Xrotation Yrotation Zrotation
						JOINT HairB
						{
							OFFSET 0.208400 24.786102 24.822300
							CHANNELS 3 Xrotation Yrotation Zrotation
							End Site
							{
								OFFSET 0.000000 32.263779 0.000000
							}
						}
						JOINT HairA
						{
							OFFSET -7.081100 24.428299 23.196600
							CHANNELS 3 Xrotation Yrotation Zrotation
							End Site
							{
								OFFSET 0.000000 32.263779 0.000000
							}
						}
						JOINT Hat
						{
							OFFSET 16.728800 15.048294 -15.439601
							CHANNELS 3 Xrotation Yrotation Zrotation
							End Site
							{
								OFFSET 0.000000 32.263779 0.000000
							}
						}
					}
				}
				JOINT LeftShoulder
				{
					OFFSET 6.197800 13.665199 -4.064700
					CHANNELS 3 Xrotation Yrotation Zrotation
					JOINT LeftArm
					{
						OFFSET 7.778100 -0.187103 -1.709300
						CHANNELS 3 Xrotation Yrotation Zrotation
						JOINT LeftForeArm
						{
							OFFSET 22.049376 0.000000 0.000000
							CHANNELS 3 Xrotation Yrotation Zrotation
							JOINT LeftHand
							{
								OFFSET 23.009392 0.000000 0.000000
								CHANNELS 3 Xrotation Yrotation Zrotation
								JOINT LeftHandThumb1
								{
									OFFSET 3.507191 -2.063065 3.133727
									CHANNELS 3 Xrotation Yrotation Zrotation
									JOINT LeftHandThumb2
									{
										OFFSET 3.101337 -1.790558 1.790558
										CHANNELS 3 Xrotation Yrotation Zrotation
										JOINT LeftHandThumb3
										{
											OFFSET 3.058640 -1.765907 1.765906
											CHANNELS 3 Xrotation Yrotation Zrotation
											End Site
											{
												OFFSET -0.415260 3.926476 -0.049563
											}
										}
									}
								}
								JOINT LeftHandIndex1
								{
									OFFSET 11.334419 -0.901459 3.706815
									CHANNELS 3 Xrotation Yrotation Zrotation
									JOINT LeftHandIndex2
									{
										OFFSET 3.283112 0.000000 0.000000
										CHANNELS 3 Xrotation Yrotation Zrotation
										JOINT LeftHandIndex3
										{
											OFFSET 3.323853 0.000000 0.000000
											CHANNELS 3 Xrotation Yrotation Zrotation
											End Site
											{
												OFFSET -1.135597 3.097809 0.402452
											}
										}
									}
								}
								JOINT LeftHandMiddle1
								{
									OFFSET 11.335861 0.000000 0.000000
									CHANNELS 3 Xrotation Yrotation Zrotation
									JOINT LeftHandMiddle2
									{
										OFFSET 3.410492 0.000000 0.000000
										CHANNELS 3 Xrotation Yrotation Zrotation
										JOINT LeftHandMiddle3
										{
											OFFSET 3.312172 0.000000 0.000000
											CHANNELS 3 Xrotation Yrotation Zrotation
											End Site
											{
												OFFSET -1.150200 3.080154 0.400270
											}
										}
									}
								}
								JOINT LeftHandRing1
								{
									OFFSET 11.514786 -0.013176 -3.003090
									CHANNELS 3 Xrotation Yrotation Zrotation
									JOINT LeftHandRing2
									{
										OFFSET 3.053307 0.000000 0.000000
										CHANNELS 3 Xrotation Yrotation Zrotation
										JOINT LeftHandRing3
										{
											OFFSET 3.295807 0.000000 0.000000
											CHANNELS 3 Xrotation Yrotation Zrotation
											End Site
											{
												OFFSET -1.281006 3.013344 0.375733
											}
										}
									}
								}
								JOINT LeftHandPinky1
								{
									OFFSET 10.518692 -0.960396 -5.730441
									CHANNELS 3 Xrotation Yrotation Zrotation
									JOINT LeftHandPinky2
									{
										OFFSET 2.861649 0.000000 0.000000
										CHANNELS 3 Xrotation Yrotation Zrotation
										JOINT LeftHandPinky3
										{
											OFFSET 2.863380 0.000000 0.000000
											CHANNELS 3 Xrotation Yrotation Zrotation
											End Site
											{
												OFFSET -0.843597 2.711159 0.369971
											}
										}
									}
								}
							}
							JOINT LSleeve
							{
								OFFSET 6.676277 -0.344902 -1.011730
								CHANNELS 3 Xrotation Yrotation Zrotation
								End Site
								{
									OFFSET 0.000000 14.885353 0.000000
								}
							}
						}
					}
				}
				JOINT RightShoulder
				{
					OFFSET -6.197800 13.665199 -4.064700
					CHANNELS 3 Xrotation Yrotation Zrotation
					JOINT RightArm
					{
						OFFSET -7.778100 -0.187103 -1.709300
						CHANNELS 3 Xrotation Yrotation Zrotation
						JOINT RightForeArm
						{
							OFFSET -22.049376 0.000000 0.000000
							CHANNELS 3 Xrotation Yrotation Zrotation
							JOINT RightHand
							{
								OFFSET -23.009392 0.000000 0.000000
								CHANNELS 3 Xrotation Yrotation Zrotation
								JOINT RightHandThumb1
								{
									OFFSET -3.507191 -2.063065 3.133727
									CHANNELS 3 Xrotation Yrotation Zrotation
									JOINT RightHandThumb2
									{
										OFFSET -3.101337 -1.790558 1.790558
										CHANNELS 3 Xrotation Yrotation Zrotation
										JOINT RightHandThumb3
										{
											OFFSET -3.058640 -1.765907 1.765906
											CHANNELS 3 Xrotation Yrotation Zrotation
											End Site
											{
												OFFSET 0.415260 3.926476 -0.049563
											}
										}
									}
								}
								JOINT RightHandIndex1
								{
									OFFSET -11.334419 -0.901459 3.706815
									CHANNELS 3 Xrotation Yrotation Zrotation
									JOINT RightHandIndex2
									{
										OFFSET -3.283112 0.000000 0.000000
										CHANNELS 3 Xrotation Yrotation Zrotation
										JOINT RightHandIndex3
										{
											OFFSET -3.323853 0.000000 0.000000
											CHANNELS 3 Xrotation Yrotation Zrotation
											End Site
											{
												OFFSET 1.135597 3.097809 0.402452
											}
										}
									}
								}
								JOINT RightHandMiddle1
								{
									OFFSET -11.335861 0.000000 0.000000
									CHANNELS 3 Xrotation Yrotation Zrotation
									JOINT RightHandMiddle2
									{
										OFFSET -3.410492 0.000000 0.000000
										CHANNELS 3 Xrotation Yrotation Zrotation
										JOINT RightHandMiddle3
										{
											OFFSET -3.312172 0.000000 0.000000
											CHANNELS 3 Xrotation Yrotation Zrotation
											End Site
											{
												OFFSET 1.150200 3.080154 0.400270
											}
										}
									}
								}
								JOINT RightHandRing1
								{
									OFFSET -11.514786 -0.013176 -3.003090
									CHANNELS 3 Xrotation Yrotation Zrotation
									JOINT RightHandRing2
									{
										OFFSET -3.053307 0.000000 0.000000
										CHANNELS 3 Xrotation Yrotation Zrotation
										JOINT RightHandRing3
										{
											OFFSET -3.295807 0.000000 0.000000
											CHANNELS 3 Xrotation Yrotation Zrotation
											End Site
											{
												OFFSET 1.281006 3.013344 0.375733
											}
										}
									}
								}
								JOINT RightHandPinky1
								{
									OFFSET -10.518692 -0.960396 -5.730441
									CHANNELS 3 Xrotation Yrotation Zrotation
									JOINT RightHandPinky2
									{
										OFFSET -2.861649 0.000000 0.000000
										CHANNELS 3 Xrotation Yrotation Zrotation
										JOINT RightHandPinky3
										{
											OFFSET -2.863380 0.000000 0.000000
											CHANNELS 3 Xrotation Yrotation Zrotation
											End Site
											{
												OFFSET 0.843597 2.711159 0.369971
											}
										}
									}
								}
							}
							JOINT RSleeve
							{
								OFFSET -6.676277 -0.344902 -1.011730
								CHANNELS 3 Xrotation Yrotation Zrotation
								End Site
								{
									OFFSET 0.000000 14.885353 0.000000
								}
							}
						}
					}
				}
				JOINT Backpack
				{
					OFFSET 0.000000 -2.471497 36.677502
					CHANNELS 3 Xrotation Yrotation Zrotation
					End Site
					{
						OFFSET 0.000000 20.427315 0.000000
					}
				}
				JOINT Hood
				{
					OFFSET 0.000000 18.754097 -10.431000
					CHANNELS 3 Xrotation Yrotation Zrotation
					JOINT Hood1
					{
						OFFSET 0.000000 -5.011002 -7.685901
						CHANNELS 3 Xrotation Yrotation Zrotation
						End Site
						{
							OFFSET 0.000000 9.175140 0.000000
						}
					}
				}
				JOINT LHoodieString
				{
					OFFSET 5.250500 16.397697 3.089900
					CHANNELS 3 Xrotation Yrotation Zrotation
					JOINT LHoodieString1
					{
						OFFSET 0.257700 -6.364304 3.694600
						CHANNELS 3 Xrotation Yrotation Zrotation
						JOINT LHoodieString2
						{
							OFFSET 0.000000 -9.643799 2.679100
							CHANNELS 3 Xrotation Yrotation Zrotation
							End Site
							{
								OFFSET 0.000000 10.009018 0.000000
							}
						}
					}
				}
				JOINT RHoodieString
				{
					OFFSET -5.250500 16.397697 3.089900
					CHANNELS 3 Xrotation Yrotation Zrotation
					JOINT RHoodieString1
					{
						OFFSET -0.257700 -6.364304 3.694600
						CHANNELS 3 Xrotation Yrotation Zrotation
						JOINT RHoodieString2
						{
							OFFSET 0.000000 -9.643799 2.679100
							CHANNELS 3 Xrotation Yrotation Zrotation
							End Site
							{
								OFFSET 0.000000 10.009018 0.000000
							}
						}
					}
				}
			}
			JOINT LBackpack_Strap
			{
				OFFSET 15.223200 -7.719803 -6.610900
				CHANNELS 3 Xrotation Yrotation Zrotation
				End Site
				{
					OFFSET 0.000000 16.040596 0.000000
				}
			}
			JOINT RBackpack_Strap
			{
				OFFSET -15.223000 -7.719803 -6.610900
				CHANNELS 3 Xrotation Yrotation Zrotation
				End Site
				{
					OFFSET 0.000000 16.040596 0.000000
				}
			}
		}
	}
	JOINT BoyFacialAnim_Joint
	{
		OFFSET 1.000000 -82.208099 -1.550900
		CHANNELS 3 Xrotation Yrotation Zrotation
		End Site
		{
			OFFSET 0.000000 30.012791 0.000000
		}
	}
}
MOTION
Frames: 4
Frame Time: 0.033333
-0.212872 68.461609 -0.717720 -55.163907 0.109562 4.370494 -0.000001 -0.000000 -0.000000 -43.688496 2.449533 -2.554767 26.819617 8.357799 4.183815 2.164185 -0.155946 -0.100007 0.000001 -0.000001 -0.000000 0.000001 -0.000001 0.000000 -0.000002 -0.000000 0.000001 -47.879237 -6.549642 -6.351319 117.485469 -12.394281 -4.047879 47.024213 -7.250137 7.710489 -0.000002 -0.000000 0.000000 -0.000002 -0.000000 0.000000 -0.000000 0.000001 0.000000 19.963641 -1.590746 -3.688353 13.241946 -0.134091 -0.132228 15.477193 -0.126362 -0.138791 -7.967509 -0.313497 6.021564 21.385807 -4.883950 13.686672 -0.000000 -0.000000 -0.000002 -0.000000 -0.000000 -0.000002 -0.000000 -0.000000 -0.000002 8.999970 4.756442 9.996363 21.038514 11.903994 -92.967877 -0.000002 -18.986838 0.000009 -16.532415 -9.346744 70.601507 -9.361262 -5.540515 12.940471 2.306156 -3.642034 11.166598 0.000002 0.000002 0.000002 2.686574 -6.442530 -0.493836 0.156194 2.047584 -12.538243 -0.000002 -0.000001 -0.000004 0.590040 1.732702 5.139460 0.285321 2.614335 -18.169751 0.000001 -0.000003 -0.000000 -0.187150 8.059783 6.563536 0.296452 1.674455 -13.674022 -0.000001 0.000003 -0.000003 -2.113101 17.956760 9.628494 0.001124 0.819700 -9.911314 0.000002 -0.000007 0.000000 -0.000002 0.000000 -0.000000 9.988791 25.794648 -13.947217 25.622381 -17.512240 104.827366 0.000001 11.979597 0.000018 -40.884935 17.404627 -67.884840 -4.903590 3.657267 -19.476658 5.922345 1.996271 0.926752 -0.000001 0.000003 0.000000 -0.473081 6.930553 3.690446 0.018129 -0.783073 0.000013 -0.000000 0.000002 0.000000 0.203187 -2.961118 1.326237 0.034226 -0.814746 -0.000006 -0.000000 0.000001 -0.000000 -0.266250 -11.370661 -2.735464 0.001906 -0.338846 -0.000051 0.000002 0.000004 0.000001 -7.043194 -12.415549 -8.057653 -0.000474 0.176065 0.018893 -0.000001 0.000001 0.000000 0.000000 -0.000001 -0.000000 0.000000 0.000000 0.000000 0.000000 0.000000 0.000000 0.000000 0.000000 0.000000 0.000000 0.000000 0.000000 0.000000 0.000000 0.000000 0.000000 -0.000000 0.000000 0.000000 0.000000 0.000000 0.000000 0.000000 0.000000 0.000000 -0.000000 0.000000 -0.000004 0.000000 -0.000000 -0.000004 0.000000 -0.000000 -0.000001 -0.000000 -0.000000 
-0.240440 68.974304 -0.902992 -55.416088 0.069044 4.217556 -0.000000 0.000000 -0.000000 -41.925016 2.575460 -2.397918 26.166935 9.903350 3.940316 0.993912 0.011789 1.332724 0.000001 0.000000 -0.000000 0.000001 0.000000 -0.000000 0.000002 -0.000000 -0.000000 -44.882003 -5.276106 -5.766523 109.513047 -11.754430 -3.308937 39.705720 -10.166866 5.792548 -0.000001 0.000001 -0.000002 -0.000001 0.000001 -0.000002 0.000001 -0.000000 0.000000 20.219962 -1.327076 -3.454154 13.301062 -0.082749 -0.157059 14.818367 -0.074816 -0.163058 -7.702401 -0.239196 5.631239 22.303511 -4.515705 13.094203 -0.000001 0.000000 -0.000001 -0.000001 0.000000 -0.000001 -0.000001 0.000000 -0.000001 8.990875 4.639236 10.159115 22.233190 11.595510 -92.918146 -0.000003 -20.603877 0.000018 -16.538511 -8.384126 70.822074 -9.361261 -5.540517 12.940472 2.306154 -3.642034 11.166597 0.000002 -0.000001 0.000001 2.686573 -6.442529 -0.493835 0.156194 2.047587 -12.538242 0.000001 -0.000002 -0.000005 0.590039 1.732699 5.139462 0.285323 2.614335 -18.169751 0.000000 -0.000000 0.000002 -0.187148 8.059781 6.563542 0.296450 1.674458 -13.674023 -0.000000 0.000001 -0.000000 -2.113102 17.956760 9.628495 0.001125 0.819701 -9.911314 0.000001 0.000000 0.000002 0.000001 0.000000 0.000000 10.119165 26.219095 -14.411783 25.906334 -17.005061 105.646081 0.000005 11.284801 0.000001 -41.738046 17.769610 -67.746017 -4.903589 3.657266 -19.476662 5.922345 1.996270 0.926752 -0.000001 -0.000001 -0.000001 -0.473082 6.930551 3.690444 0.018128 -0.783073 0.000013 -0.000000 0.000002 0.000000 0.203189 -2.961125 1.326238 0.034227 -0.814743 -0.000007 0.000001 -0.000001 0.000001 -0.266250 -11.370661 -2.735466 0.001904 -0.338858 -0.000054 -0.000001 -0.000001 0.000002 -7.043194 -12.415550 -8.057654 -0.000473 0.176064 0.018894 -0.000000 -0.000003 -0.000002 -0.000000 -0.000000 -0.000000 -0.000001 0.000000 0.000000 -0.000001 0.000000 0.000000 -0.000001 0.000000 0.000000 -0.000001 0.000000 0.000000 -0.000001 0.000000 0.000000 -0.000001 0.000000 0.000000 -0.000001 0.000000 0.000000 -0.000001 0.000000 0.000000 -0.000001 0.000000 0.000000 -0.000001 -0.000000 -0.000000 -0.000001 -0.000000 -0.000000 -0.000000 0.000000 -0.000000 
-0.285408 69.484680 -1.065872 -55.586357 -0.006467 3.892265 -0.000002 0.000000 -0.000000 -39.751134 2.863156 -1.939477 26.474776 10.821084 3.560674 -0.072614 1.191701 2.477665 -0.000001 -0.000000 -0.000000 -0.000001 -0.000000 -0.000000 0.000001 0.000001 0.000000 -41.347120 -3.474222 -4.899553 99.307706 -11.398855 -2.756048 35.057076 -11.882003 5.175808 0.000003 0.000001 -0.000001 0.000003 0.000001 -0.000001 -0.000000 -0.000001 0.000001 20.357746 -1.217296 -3.176284 13.341216 -0.068182 -0.178543 14.375508 -0.060044 -0.184425 -7.431682 -0.135073 5.004916 22.918526 -3.963783 12.084344 0.000000 0.000000 0.000000 0.000000 0.000000 0.000000 0.000000 0.000000 0.000000 8.981118 4.581419 10.336921 23.097176 11.388246 -93.099276 0.000002 -21.512642 -0.000005 -16.662550 -7.886972 71.008245 -9.361260 -5.540515 12.940472 2.306156 -3.642036 11.166595 -0.000000 -0.000001 -0.000001 2.686573 -6.442531 -0.493837 0.156194 2.047585 -12.538244 -0.000002 0.000004 -0.000003 0.590040 1.732699 5.139460 0.285324 2.614335 -18.169753 -0.000000 -0.000001 0.000000 -0.187150 8.059780 6.563541 0.296451 1.674456 -13.674020 0.000001 0.000001 -0.000002 -2.113103 17.956762 9.628495 0.001125 0.819697 -9.911314 -0.000000 -0.000000 -0.000000 0.000002 -0.000000 0.000002 10.163681 26.406042 -14.546811 26.695118 -16.446286 106.014535 0.000001 12.286354 -0.000012 -41.975785 17.353421 -68.173812 -4.903590 3.657267 -19.476657 5.922344 1.996269 0.926751 -0.000000 -0.000001 0.000000 -0.473082 6.930550 3.690442 0.018130 -0.783076 0.000012 -0.000001 0.000000 -0.000000 0.203186 -2.961121 1.326238 0.034226 -0.814742 -0.000007 0.000001 0.000003 0.000000 -0.266250 -11.370666 -2.735465 0.001905 -0.338851 -0.000053 -0.000001 0.000002 0.000002 -7.043192 -12.415552 -8.057655 -0.000474 0.176063 0.018891 0.000001 -0.000003 -0.000002 0.000001 -0.000000 0.000000 -0.000000 -0.000000 -0.000000 -0.000000 -0.000000 -0.000000 -0.000000 -0.000000 -0.000000 -0.000000 -0.000000 -0.000000 -0.000000 -0.000000 -0.000000 -0.000000 -0.000000 -0.000000 -0.000000 -0.000000 -0.000000 -0.000000 -0.000000 -0.000000 -0.000000 -0.000000 -0.000000 -0.000001 0.000000 0.000000 -0.000001 0.000000 0.000000 -0.000002 0.000000 -0.000000 
-0.312716 69.972702 -1.180420 -55.745979 -0.014520 3.386166 0.000001 0.000000 -0.000000 -37.350763 3.201455 -1.283415 28.174134 10.761750 3.133366 -0.660147 3.411635 3.520428 0.000001 0.000000 0.000000 0.000001 0.000000 0.000000 0.000000 -0.000000 -0.000000 -37.547759 -1.734474 -3.996562 87.345033 -11.161382 -2.558117 32.565806 -12.363031 5.488858 0.000003 0.000000 -0.000000 0.000003 0.000000 -0.000000 0.000000 -0.000001 0.000000 20.424147 -1.290080 -2.784530 13.366178 -0.100818 -0.186082 14.105458 -0.092571 -0.192414 -7.092861 -0.000008 4.232527 23.002957 -3.271562 10.719917 0.000001 0.000000 -0.000000 0.000001 0.000000 -0.000000 0.000001 0.000000 -0.000000 8.977018 4.585040 10.406533 23.907154 11.401570 -93.431175 -0.000004 -22.231286 0.000001 -16.755352 -7.579388 71.190802 -9.361261 -5.540516 12.940471 2.306154 -3.642034 11.166594 0.000001 -0.000001 0.000004 2.686574 -6.442532 -0.493835 0.156193 2.047588 -12.538241 -0.000000 -0.000001 -0.000000 0.590040 1.732698 5.139460 0.285323 2.614340 -18.169753 0.000003 0.000001 -0.000001 -0.187149 8.059779 6.563537 0.296452 1.674460 -13.674026 -0.000000 0.000002 -0.000000 -2.113102 17.956765 9.628498 0.001123 0.819698 -9.911311 -0.000000 0.000003 0.000002 -0.000002 -0.000000 0.000000 10.075763 26.303550 -14.186388 28.261735 -15.862428 105.870562 -0.000001 15.324687 0.000002 -41.546094 16.049331 -69.279736 -4.903589 3.657267 -19.476658 5.922346 1.996272 0.926752 -0.000000 -0.000000 0.000001 -0.473080 6.930547 3.690442 0.018130 -0.783070 0.000013 0.000001 0.000001 0.000000 0.203188 -2.961121 1.326235 0.034228 -0.814743 -0.000005 -0.000001 0.000002 0.000000 -0.266249 -11.370663 -2.735466 0.001904 -0.338856 -0.000056 -0.000001 -0.000001 0.000000 -7.043190 -12.415549 -8.057657 -0.000471 0.176073 0.018894 0.000001 -0.000001 0.000000 0.000000 0.000001 -0.000000 -0.000000 0.000000 0.000000 -0.000000 0.000000 0.000000 -0.000000 0.000000 0.000000 -0.000000 0.000000 0.000000 -0.000000 0.000000 0.000000 0.000001 -0.000000 0.000000 -0.000000 0.000000 0.000000 -0.000000 0.000000 0.000000 0.000001 -0.000000 0.000000 -0.000000 -0.000000 0.000000 -0.000000 -0.000000 0.000000 0.000001 0.000000 -0.000000 
